{"title":"Sta dixtya tou pepromenou ep 7-8 Gr Subs","uid":12565639,"size":1124864912,"categoryP":"video","categoryS":"tv_shows","magnet":"?xt=urn:btih:1cd6590ea45197822287496c9e2be1ff86f5ac11&amp;dn=Sta+dixtya+tou+pepromenou+ep+7-8+Gr+Subs&amp;tr=udp%3A%2F%2Ftracker.leechers-paradise.org%3A6969&amp;tr=udp%3A%2F%2Fzer0day.ch%3A1337&amp;tr=udp%3A%2F%2Fopen.demonii.com%3A1337&amp;tr=udp%3A%2F%2Ftracker.coppersurfer.tk%3A6969&amp;tr=udp%3A%2F%2Fexodus.desync.com%3A6969","seeders":0,"leechers":0,"uploader":"Aris2015","files":1,"time":1444775626,"description":"Parakalo kante seed.\r\n\r\n\r\nGeneral\r\nComplete name               : C:UsersSta dixtya tou pepromenou ep 7-8.avi\r\nFormat                      : AVI\r\nFormat/Info                 : Audio Video Interleave\r\nFormat profile              : OpenDML\r\nFile size                   : 1.05 GiB\r\nDuration                    : 1h 52mn\r\nOverall bit rate            : 1 336 Kbps\r\nWriting application         : Lavf54.63.104\r\n\r\nVideo\r\nID                          : 0\r\nFormat                      : AVC\r\nFormat/Info                 : Advanced Video Codec\r\nFormat profile              :   \r\nFormat settings, CABAC      : Yes\r\nFormat settings, ReFrames   : 1 frame\r\nCodec ID                    : H264\r\nDuration                    : 1h 52mn\r\nBit rate                    : 1 074 Kbps\r\nWidth                       : 1 024 pixels\r\nHeight                      : 576 pixels\r\nDisplay aspect ratio        : 16:9\r\nFrame rate mode             : Variable\r\nFrame rate                  : 25.000 fps\r\nColor space                 : YUV\r\nChroma subsampling          : 4:2:0\r\nBit depth                   : 8 bits\r\nScan type                   : Progressive\r\nBits/(Pixel*Frame)          : 0.073\r\nStream size                 : 854 MiB (80%)\r\nWriting library             : x264 core 129\r\nEncoding settings           : cabac=1 / ref=1 / deblock=1:0:0 / analyse=0x1:0x131 / me=dia / subme=2 / psy=1 / psy_rd=1.00:0.00 / mixed_ref=0 / me_range=16 / chroma_me=1 / trellis=0 / 8x8dct=0 / cqm=0 / deadzone=21,11 / fast_pskip=1 / chroma_qp_offset=0 / threads=4 / lookahead_threads=1 / sliced_threads=0 / nr=0 / decimate=1 / interlaced=0 / bluray_compat=0 / constrained_intra=0 / bframes=0 / weightp=2 / keyint=250 / keyint_min=25 / scenecut=40 / intra_refresh=0 / rc_lookahead=40 / rc=abr / mbtree=1 / bitrate=1074 / ratetol=1.0 / qcomp=0.60 / qpmin=10 / qpmax=51 / qpstep=4 / ip_ratio=1.41 / aq=1:1.00\r\n\r\nAudio\r\nID                          : 1\r\nFormat                      : MPEG Audio\r\nFormat version              : Version 1\r\nFormat profile              : Layer 3\r\nMode                        : Joint stereo\r\nMode extension              : MS Stereo\r\nCodec ID                    : 55\r\nCodec ID/Hint               : MP3\r\nDuration                    : 1h 52mn\r\nBit rate mode               : Constant\r\nBit rate                    : 256 Kbps\r\nChannel(s)                  : 2 channels\r\nSampling rate               : 48.0 KHz\r\nCompression mode            : Lossy\r\nStream size                 : 206 MiB (19%)\r\nAlignment                   : Aligned on interleaves","torrent":{"xt":"urn:btih:1cd6590ea45197822287496c9e2be1ff86f5ac11","amp;dn":"Sta+dixtya+tou+pepromenou+ep+7-8+Gr+Subs","amp;tr":["udp%3A%2F%2Ftracker.leechers-paradise.org%3A6969","udp%3A%2F%2Fzer0day.ch%3A1337","udp%3A%2F%2Fopen.demonii.com%3A1337","udp%3A%2F%2Ftracker.coppersurfer.tk%3A6969","udp%3A%2F%2Fexodus.desync.com%3A6969"],"infoHash":"1cd6590ea45197822287496c9e2be1ff86f5ac11","infoHashBuffer":{"type":"Buffer","data":[28,214,89,14,164,81,151,130,34,135,73,108,158,43,225,255,134,245,172,17]},"announce":[],"urlList":[]}}